<svg width="1080" height="1080" viewBox="0 0 1080 1080" fill="none" xmlns="http://www.w3.org/2000/svg">
<path d="M222.533 711C219.2 711 216.367 710 214.033 708C212.033 705.667 211.033 702.833 211.033 699.5V463C211.033 459.667 212.033 456.833 214.033 454.5C216.367 452.167 219.2 451 222.533 451H245.533C248.867 451 251.7 452.167 254.033 454.5C256.367 456.833 257.533 459.667 257.533 463V485C264.2 473.667 273.367 465.167 285.033 459.5C296.7 453.833 310.7 451 327.033 451H347.033C350.367 451 353.033 452.167 355.033 454.5C357.033 456.5 358.033 459.167 358.033 462.5V483C358.033 486.333 357.033 489 355.033 491C353.033 493 350.367 494 347.033 494H317.033C299.033 494 284.867 499.333 274.533 510C264.2 520.333 259.033 534.5 259.033 552.5V699.5C259.033 702.833 257.867 705.667 255.533 708C253.2 710 250.367 711 247.033 711H222.533ZM469.568 716C452.902 716 437.735 712.667 424.068 706C410.402 699.333 399.402 690.333 391.068 679C382.735 667.667 378.568 654.833 378.568 640.5C378.568 617.5 387.902 599.167 406.568 585.5C425.235 571.833 449.568 562.833 479.568 558.5L554.068 548V533.5C554.068 517.5 549.402 505 540.068 496C531.068 487 516.235 482.5 495.568 482.5C480.568 482.5 468.402 485.5 459.068 491.5C450.068 497.5 443.735 505.167 440.068 514.5C438.068 519.5 434.568 522 429.568 522H407.068C403.402 522 400.568 521 398.568 519C396.902 516.667 396.068 514 396.068 511C396.068 506 397.902 499.833 401.568 492.5C405.568 485.167 411.568 478 419.568 471C427.568 464 437.735 458.167 450.068 453.5C462.735 448.5 478.068 446 496.068 446C516.068 446 532.902 448.667 546.568 454C560.235 459 570.902 465.833 578.568 474.5C586.568 483.167 592.235 493 595.568 504C599.235 515 601.068 526.167 601.068 537.5V699.5C601.068 702.833 599.902 705.667 597.568 708C595.568 710 592.902 711 589.568 711H566.568C562.902 711 560.068 710 558.068 708C556.068 705.667 555.068 702.833 555.068 699.5V678C550.735 684 544.902 690 537.568 696C530.235 701.667 521.068 706.5 510.068 710.5C499.068 714.167 485.568 716 469.568 716ZM480.068 678.5C493.735 678.5 506.235 675.667 517.568 670C528.902 664 537.735 654.833 544.068 642.5C550.735 630.167 554.068 614.667 554.068 596V582L496.068 590.5C472.402 593.833 454.568 599.5 442.568 607.5C430.568 615.167 424.568 625 424.568 637C424.568 646.333 427.235 654.167 432.568 660.5C438.235 666.5 445.235 671 453.568 674C462.235 677 471.068 678.5 480.068 678.5ZM713.076 806C710.41 806 708.076 805 706.076 803C704.076 801 703.076 798.667 703.076 796C703.076 794.667 703.243 793.333 703.576 792C703.91 790.667 704.576 789 705.576 787L744.076 695.5L648.576 470C646.91 466 646.076 463.167 646.076 461.5C646.076 458.5 647.076 456 649.076 454C651.076 452 653.576 451 656.576 451H681.076C684.41 451 687.076 451.833 689.076 453.5C691.076 455.167 692.41 457.167 693.076 459.5L769.076 641.5L847.076 459.5C848.076 457.167 849.41 455.167 851.076 453.5C853.076 451.833 855.91 451 859.576 451H883.076C886.076 451 888.576 452 890.576 454C892.576 456 893.576 458.333 893.576 461C893.576 462.667 892.743 465.667 891.076 470L749.076 797.5C748.076 799.833 746.576 801.833 744.576 803.5C742.91 805.167 740.243 806 736.576 806H713.076Z" fill="black"/>
</svg>
